PathFileType	4	(X/Y/Z)	 s02c0101.trc
DataRate	CameraRate	NumFrames	NumMarkers	Units	OrigDataRate	OrigDataStartFrame	OrigNumFrames
200	200	4	51	mm	200	501	2000
Frame#	Time	racr			lacr			c7			jug			rlel			rdr			llel			ldr			s2			lic			ric			lasi			rasi			rpsi			lpsi			rgt			lgt			rth1			rth2			rth3			rth4			rlfc			rmfc			rsh1			rsh2			rsh3			rsh4			rlmal			rmmal			rtoe			rmt5			rmt1			lth1			lth2			lth4			lth3			llfc			lmfc			lsh1			lsh2			lsh3			lsh4			llmal			lmmal			lcal			ltoe			lmt1			lmt5			SBIKE			LBIKE			RBIKE			
		X1	Y1	Z1	X2	Y2	Z2	X3	Y3	Z3	X4	Y4	Z4	X5	Y5	Z5	X6	Y6	Z6	X7	Y7	Z7	X8	Y8	Z8	X9	Y9	Z9	X10	Y10	Z10	X11	Y11	Z11	X12	Y12	Z12	X13	Y13	Z13	X14	Y14	Z14	X15	Y15	Z15	X16	Y16	Z16	X17	Y17	Z17	X18	Y18	Z18	X19	Y19	Z19	X20	Y20	Z20	X21	Y21	Z21	X22	Y22	Z22	X23	Y23	Z23	X24	Y24	Z24	X25	Y25	Z25	X26	Y26	Z26	X27	Y27	Z27	X28	Y28	Z28	X29	Y29	Z29	X30	Y30	Z30	X31	Y31	Z31	X32	Y32	Z32	X33	Y33	Z33	X34	Y34	Z34	X35	Y35	Z35	X36	Y36	Z36	X37	Y37	Z37	X38	Y38	Z38	X39	Y39	Z39	X40	Y40	Z40	X41	Y41	Z41	X42	Y42	Z42	X43	Y43	Z43	X44	Y44	Z44	X45	Y45	Z45	X46	Y46	Z46	X47	Y47	Z47	X48	Y48	Z48	X49	Y49	Z49	X50	Y50	Z50	X51	Y51	Z51	
501	2.5050	532.283467	1268.085028	-120.157271	518.574440	1279.615652	-464.340451	516.423808	1322.837677	-292.208441	473.134927	1185.390931	-299.040288	568.636783	999.798109	-62.413825	726.543035	851.784072	-123.660241	517.084391	1004.064344	-551.789748	694.768697	855.952061	-498.013132	0.878625	1119.967890	-290.115439	122.507033	1142.964469	-439.148001	143.371863	1115.384760	-156.589327	164.233691	1111.721126	-417.586237	192.479263	1088.053476	-185.447365	31.171126	1161.719610	-241.445126	19.732039	1168.901341	-326.583036	109.738540	1021.326804	-129.215669	81.050116	1067.957238	-484.519177	178.170510	944.948681	-120.299065	234.265191	877.448448	-126.494549	254.945188	796.014873	-107.567964	259.689288	888.803698	-152.532799	292.269873	664.832539	-148.412925	277.904362	646.587512	-253.307606	279.208147	560.157652	-126.135257	288.665612	472.615334	-141.562995	256.939669	392.350192	-135.658997	300.449957	473.316496	-179.328638	231.140368	277.251016	-141.923500	238.735024	291.808464	-220.855767	405.198273	127.406648	-189.450788	302.306871	160.899769	-127.555855	329.529236	164.511832	-233.908170	215.008519	1030.707214	-490.290569	301.672045	1023.885762	-487.104373	312.026235	1053.894116	-466.588162	374.278985	972.931868	-490.874475	466.294983	930.973145	-472.037760	469.132231	901.813214	-359.225861	433.342198	836.207272	-487.423083	394.621456	760.667631	-470.446459	323.353679	706.202688	-479.282163	408.778646	751.541369	-433.412650	236.272610	631.694230	-473.529114	250.419857	625.506585	-392.880210	153.506120	607.344044	-435.452038	415.474809	490.195043	-434.265052	337.196732	518.009030	-388.210811	310.828743	508.370292	-497.048528	-162.358542	860.950648	-309.291489	37.348649	86.717288	-514.269280	33.808597	83.473406	-114.121411	
502	2.5100	531.905378	1267.426534	-120.968169	517.379695	1279.333391	-465.154487	515.636120	1322.413708	-292.648731	472.526176	1184.981112	-299.499401	568.661494	999.615307	-62.413754	726.420854	851.301971	-123.459289	514.709467	1003.190113	-551.408421	693.859444	856.508536	-498.091478	-0.098753	1119.421781	-289.908675	121.755023	1142.237779	-438.790110	142.323972	1114.940605	-156.287785	162.802235	1110.706690	-415.355220	191.453474	1087.549058	-184.968864	28.211797	1162.467696	-239.454555	18.876283	1168.440572	-326.341710	108.379270	1020.610924	-129.036582	80.421298	1067.668454	-484.175113	177.188874	944.135695	-120.105035	233.917251	877.175808	-126.352865	255.275928	795.846918	-107.735603	259.284755	888.833435	-152.251627	293.603846	664.927180	-149.228143	279.301978	647.014560	-254.222356	278.974627	560.554510	-126.914983	286.285647	472.697935	-142.615784	253.041040	393.107194	-136.637662	298.189650	473.181554	-180.350645	224.456183	278.563455	-142.605567	232.694668	292.973482	-221.724201	397.494751	127.187856	-189.064193	294.483487	161.474629	-127.859781	322.258919	164.598195	-234.172582	215.607661	1032.051441	-494.064853	300.781337	1023.620280	-487.025334	311.145006	1053.750287	-466.627036	373.354303	972.675069	-490.635466	465.273211	931.087920	-472.358364	468.912377	902.233419	-359.295692	433.812659	835.958483	-487.478616	396.208771	759.875323	-470.534904	325.517566	704.527511	-479.244718	410.414412	750.930534	-433.338257	239.316806	628.876747	-473.093448	253.460357	622.837695	-392.623314	156.715941	602.071298	-435.467943	422.403867	493.141128	-434.323669	343.096493	518.485476	-388.470893	317.121630	507.940868	-497.327488	-162.386649	860.981263	-309.218441	37.339737	86.706529	-514.265417	33.794237	83.438467	-114.120263	
503	2.5150	531.484369	1266.695223	-121.778586	516.081196	1279.027790	-465.812149	514.847561	1321.902049	-293.170820	471.851672	1184.497104	-300.027589	568.621891	999.409280	-62.263844	726.239450	850.810568	-123.472075	512.581984	1002.274088	-550.853640	693.158357	856.957677	-498.320291	-1.121762	1118.779893	-289.710158	120.659142	1141.537502	-438.090135	141.298546	1114.447763	-155.860117	161.934943	1110.291921	-414.843629	191.312704	1087.211893	-183.567694	27.076572	1161.915843	-239.142908	17.893259	1167.872866	-326.099429	107.010517	1019.731324	-128.960658	79.745497	1067.164194	-483.431234	176.330371	943.385115	-119.951548	233.812787	877.071908	-126.292277	255.984956	795.831128	-108.032790	259.120486	889.094629	-152.032495	295.485130	665.285730	-150.192526	281.223178	647.780140	-255.173661	278.928787	560.937500	-127.967978	284.206369	472.987113	-143.610123	249.230363	394.220231	-137.573211	296.217962	473.288024	-181.321110	217.620220	280.113579	-143.441407	226.651642	294.524545	-222.671071	389.763963	127.343932	-188.325369	286.607760	162.595112	-128.261320	315.082916	165.027469	-234.376259	214.662754	1031.566383	-493.752824	299.811962	1023.121143	-486.871318	310.242081	1053.378516	-466.654327	372.388379	972.103080	-490.306445	464.341994	929.839933	-472.671897	468.514226	901.919657	-359.313981	434.056774	835.117717	-487.393399	397.461783	758.438676	-470.431436	327.447096	702.310696	-479.111918	411.802970	749.814907	-433.300961	242.256826	625.537413	-472.753537	256.290681	619.542445	-392.440725	160.102255	596.103321	-435.392097	429.202149	495.780045	-434.313356	349.283070	518.894335	-388.169128	323.372611	507.103206	-497.538872	-162.468328	860.857033	-309.607510	37.323334	86.693403	-514.274226	33.806166	83.420105	-114.107040	
504	2.5200	531.030731	1265.885458	-122.475143	514.774246	1278.539956	-466.591540	513.979048	1321.343419	-293.689354	471.123628	1183.792342	-300.498377	568.567402	999.099668	-62.023997	726.000837	850.343410	-123.518454	510.627034	1001.340189	-550.183859	692.590405	857.375237	-498.169497	-2.077913	1118.010403	-289.418907	120.006160	1140.975114	-438.001147	140.278141	1113.885167	-155.515136	161.147219	1109.881029	-414.321421	190.346047	1086.652757	-182.950070	26.007427	1161.300770	-238.811550	16.959869	1167.239369	-325.902757	105.690053	1018.947016	-128.909068	79.092833	1066.609514	-482.822488	175.656575	942.739036	-119.969048	233.983605	877.086475	-126.334362	257.013918	795.996857	-108.455946	259.242064	889.555634	-151.869415	297.709681	665.839080	-151.119102	283.551544	648.699479	-256.231866	279.166319	561.641649	-129.113125	282.396726	473.421975	-144.819611	245.608168	395.441999	-138.696394	294.487514	473.401033	-182.330060	211.007392	282.116044	-144.358148	220.859614	296.460050	-223.786972	381.980367	127.653433	-187.540915	278.691236	163.932153	-128.657473	307.859930	165.667994	-234.726621	213.851809	1030.997448	-493.797111	298.916094	1022.252931	-486.644664	309.374350	1052.563329	-466.636558	371.418084	971.132558	-489.988502	463.455182	928.943976	-472.504897	468.044197	900.996679	-359.308839	434.183383	833.585303	-487.300970	398.595322	756.456122	-470.284393	329.241108	699.513063	-478.979136	413.015090	748.027590	-433.245533	245.213422	621.605272	-472.358424	258.860621	615.688469	-392.428262	163.507775	589.547158	-435.334529	435.801301	498.074136	-434.424649	355.011895	518.410800	-388.411830	329.638548	506.002672	-497.760850	-162.495141	860.849782	-309.593840	37.305272	86.605101	-514.257695	33.490044	83.839127	-114.128887	
